
<?xml version="1.0" encoding="UTF-8"?>
<svg id="Layer_1" data-name="Layer 1" xmlns="http://www.w3.org/2000/svg" version="1.1" viewBox="0 0 1200 1200">
  <defs>
    <style>
      .cls-1 {
        fill: #d4ff1d;
        stroke-width: 0px;
      }
    </style>
  </defs>
  <path class="cls-1" d="M600,100c-276.14,0-500,223.86-500,500s223.86,500,500,500,500-223.86,500-500S876.14,100,600,100ZM923.95,851.32c-33.48,43.11-75.41,79.35-123.25,106.25-12.05,6.77-27.28,2.82-34.19-9.15l-84.25-145.94c-16.97-29.39-48.33-47.5-82.27-47.5h0c-33.94,0-65.3,18.11-82.27,47.5l-84.25,145.94c-6.91,11.97-22.14,15.92-34.19,9.15-47.85-26.91-89.77-63.15-123.25-106.25-10.03-12.91-11.35-30.59-3.17-44.75l71.63-124.08c13.4-23.21,38.16-37.5,64.95-37.5h381.09c26.8,0,51.56,14.3,64.95,37.5l71.63,124.08c8.18,14.16,6.86,31.84-3.17,44.75ZM933.44,382.48l-77.95,135c-13.4,23.2-38.16,37.5-64.95,37.5h-381.1c-26.79,0-51.55-14.29-64.95-37.5l-77.95-135c-9.62-16.67,2.4-37.5,21.65-37.5h623.6c19.25,0,31.27,20.83,21.65,37.5Z"/>
</svg>
