<svg width="5190" height="5190" viewBox="0 0 5190 5190" fill="none" xmlns="http://www.w3.org/2000/svg">
<path d="M2595 0C1161.83 0 0 1161.83 0 2595C0 4028.17 1161.83 5190 2595 5190C4028.17 5190 5190 4028.17 5190 2595C5190 1161.83 4028.17 0 2595 0ZM4276.3 3899.35C4102.54 4123.09 3884.92 4311.18 3636.63 4450.79C3574.09 4485.92 3495.05 4465.42 3459.19 4403.3L3021.93 3645.87C2933.86 3493.34 2771.1 3399.35 2594.95 3399.35C2418.8 3399.35 2256.04 3493.34 2167.97 3645.87L1730.71 4403.3C1694.85 4465.42 1615.8 4485.92 1553.26 4450.79C1304.92 4311.13 1087.36 4123.04 913.596 3899.35C861.54 3832.35 854.689 3740.59 897.143 3667.1L1268.9 3023.12C1338.45 2902.66 1466.95 2828.5 1605.99 2828.5H3583.85C3722.94 2828.5 3851.45 2902.72 3920.94 3023.12L4292.7 3667.1C4335.16 3740.59 4328.3 3832.35 4276.25 3899.35H4276.3ZM4325.55 1466.07L3920.99 2166.72C3851.45 2287.13 3722.94 2361.35 3583.9 2361.35H1605.99C1466.95 2361.35 1338.45 2287.18 1268.9 2166.72L864.343 1466.07C814.415 1379.55 876.799 1271.45 976.706 1271.45H4213.19C4313.1 1271.45 4375.48 1379.55 4325.55 1466.07Z" fill="#D4FF1D"/>
</svg>
